<?xml version="1.0" encoding="UTF-8" standalone="no"?><!-- Generator: Gravit.io --><svg xmlns="http://www.w3.org/2000/svg" xmlns:xlink="http://www.w3.org/1999/xlink" style="isolation:isolate" viewBox="0 0 64 64" width="64pt" height="64pt"><defs><clipPath id="_clipPath_KYtH3mewxOcLTbHgunnURh29jmgxGj8E"><rect width="64" height="64"/></clipPath></defs><g clip-path="url(#_clipPath_KYtH3mewxOcLTbHgunnURh29jmgxGj8E)"><path d="M 12 4 L 48 4 C 52.415 4 56 7.585 56 12 L 56 48 C 56 52.415 52.415 56 48 56 L 12 56 C 7.585 56 4 52.415 4 48 L 4 12 C 4 7.585 7.585 4 12 4 Z" style="stroke:none;fill:#FFFFFF;stroke-miterlimit:10;"/><path d="M 11.667 8 L 48.333 8 C 50.357 8 52 9.643 52 11.667 L 52 48.333 C 52 50.357 50.357 52 48.333 52 L 11.667 52 C 9.643 52 8 50.357 8 48.333 L 8 11.667 C 8 9.643 9.643 8 11.667 8 Z" style="stroke:none;fill:#B08D58;stroke-miterlimit:10;"/><path d="M 44.472 16 L 55.528 16 C 57.996 16 60 18.004 60 20.472 L 60 31.528 C 60 33.996 57.996 36 55.528 36 L 44.472 36 C 42.004 36 40 33.996 40 31.528 L 40 20.472 C 40 18.004 42.004 16 44.472 16 Z" style="stroke:none;fill:#FFFFFF;stroke-miterlimit:10;"/><rect x="44" y="20" width="12" height="12" transform="matrix(1,0,0,1,0,0)" fill="rgb(74,134,232)"/><path d="M 44 40 L 56 40 C 58.208 40 60 41.792 60 44 L 60 56 C 60 58.208 58.208 60 56 60 L 44 60 C 41.792 60 40 58.208 40 56 L 40 44 C 40 41.792 41.792 40 44 40 Z" style="stroke:none;fill:#FFFFFF;stroke-miterlimit:10;"/><rect x="44" y="44" width="12" height="12" transform="matrix(1,0,0,1,0,0)" fill="rgb(195,51,97)"/></g></svg>