<?xml version="1.0" encoding="UTF-8" standalone="no"?><!-- Generator: Gravit.io --><svg xmlns="http://www.w3.org/2000/svg" xmlns:xlink="http://www.w3.org/1999/xlink" style="isolation:isolate" viewBox="0 0 64 64" width="64pt" height="64pt"><defs><clipPath id="_clipPath_7j9XbhMJURYIEz8crd59pdxTp1XtiG2Q"><rect width="64" height="64"/></clipPath></defs><g clip-path="url(#_clipPath_7j9XbhMJURYIEz8crd59pdxTp1XtiG2Q)"><g><path d="M 11.155 16 L 28.845 16 C 32.794 16 36 19.206 36 23.155 L 36 40.845 C 36 44.794 32.794 48 28.845 48 L 11.155 48 C 7.206 48 4 44.794 4 40.845 L 4 23.155 C 4 19.206 7.206 16 11.155 16 Z" style="stroke:none;fill:#FFFFFF;stroke-miterlimit:10;"/><rect x="8" y="20" width="24" height="24" transform="matrix(1,0,0,1,0,0)" fill="rgb(46,46,46)"/><path d="M 44 22 L 56 22 C 58.208 22 60 23.792 60 26 L 60 38 C 60 40.208 58.208 42 56 42 L 44 42 C 41.792 42 40 40.208 40 38 L 40 26 C 40 23.792 41.792 22 44 22 Z" style="stroke:none;fill:#FFFFFF;stroke-miterlimit:10;"/><rect x="44" y="26" width="12" height="12" transform="matrix(1,0,0,1,0,0)" fill="rgb(46,46,46)"/><path d="M 26 26 L 26 26 C 27.104 26 28 26.896 28 28 L 28 28 C 28 29.104 27.104 30 26 30 L 26 30 C 24.896 30 24 29.104 24 28 L 24 28 C 24 26.896 24.896 26 26 26 Z" style="stroke:none;fill:#FFFFFF;stroke-miterlimit:10;"/><path d="M 26 34 L 26 34 C 27.104 34 28 34.896 28 36 L 28 36 C 28 37.104 27.104 38 26 38 L 26 38 C 24.896 38 24 37.104 24 36 L 24 36 C 24 34.896 24.896 34 26 34 Z" style="stroke:none;fill:#FFFFFF;stroke-miterlimit:10;"/></g></g></svg>