<?xml version="1.0" encoding="UTF-8" standalone="no"?><!-- Generator: Gravit.io --><svg xmlns="http://www.w3.org/2000/svg" xmlns:xlink="http://www.w3.org/1999/xlink" style="isolation:isolate" viewBox="0 0 64 64" width="64pt" height="64pt"><defs><clipPath id="_clipPath_E7oApMMUw81dIpifj07iaxH4DhUSpF6Q"><rect width="64" height="64"/></clipPath></defs><g clip-path="url(#_clipPath_E7oApMMUw81dIpifj07iaxH4DhUSpF6Q)"><g style="mix-blend-mode:normal;" opacity="0.5"><path d="M 16 8 L 32 8 C 36.415 8 40 11.585 40 16 L 40 32 C 40 36.415 36.415 40 32 40 L 16 40 C 11.585 40 8 36.415 8 32 L 8 16 C 8 11.585 11.585 8 16 8 Z" style="stroke:none;fill:#FFFFFF;stroke-miterlimit:10;"/></g><g style="mix-blend-mode:normal;" opacity="0.5"><path d="M 16 12 L 32 12 C 34.208 12 36 13.792 36 16 L 36 32 C 36 34.208 34.208 36 32 36 L 16 36 C 13.792 36 12 34.208 12 32 L 12 16 C 12 13.792 13.792 12 16 12 Z" style="stroke:none;fill:#009688;stroke-miterlimit:10;"/></g><path d="M 32 24 L 48 24 C 52.415 24 56 27.585 56 32 L 56 48 C 56 52.415 52.415 56 48 56 L 32 56 C 27.585 56 24 52.415 24 48 L 24 32 C 24 27.585 27.585 24 32 24 Z" style="stroke:none;fill:#FFFFFF;stroke-miterlimit:10;"/><path d="M 32 28 L 48 28 C 50.208 28 52 29.792 52 32 L 52 48 C 52 50.208 50.208 52 48 52 L 32 52 C 29.792 52 28 50.208 28 48 L 28 32 C 28 29.792 29.792 28 32 28 Z" style="stroke:none;fill:#009688;stroke-miterlimit:10;"/><mask id="_mask_FGwahGjjm47kLjnenKAfbTLCX4ykXUft" x="-200%" y="-200%" width="400%" height="400%"><rect x="-200%" y="-200%" width="400%" height="400%" style="fill:white;"/><path d=" M 36 24 L 48 24 L 48 28 L 36 28 L 36 32 L 30 26 L 36 20 L 36 24 Z " fill="black" stroke="none"/></mask><path d=" M 36 24 L 48 24 L 48 28 L 36 28 L 36 32 L 30 26 L 36 20 L 36 24 Z " fill="rgb(0,0,0)"/><path d=" M 36 24 L 48 24 L 48 28 L 36 28 L 36 32 L 30 26 L 36 20 L 36 24 Z " fill="rgb(0,0,0)" mask="url(#_mask_FGwahGjjm47kLjnenKAfbTLCX4ykXUft)" vector-effect="non-scaling-stroke" stroke-width="8" stroke="rgb(255,255,255)" stroke-linejoin="round" stroke-linecap="round" stroke-miterlimit="3"/></g></svg>